<?xml version="1.0" encoding="utf-8"?>
<!-- Generator: Adobe Illustrator 16.0.0, SVG Export Plug-In . SVG Version: 6.00 Build 0)  -->
<!DOCTYPE svg PUBLIC "-//W3C//DTD SVG 1.1//EN" "http://www.w3.org/Graphics/SVG/1.1/DTD/svg11.dtd">
<svg version="1.1" xmlns="http://www.w3.org/2000/svg" xmlns:xlink="http://www.w3.org/1999/xlink" x="0px" y="0px"
	 width="141.732px" height="113.386px" viewBox="0 0 141.732 113.386" enable-background="new 0 0 141.732 113.386"
	 xml:space="preserve">
<g id="Layer_3" display="none">
	<polygon display="inline" fill-rule="evenodd" clip-rule="evenodd" fill="#1D1D1B" points="0,0 141.732,0 141.732,113.386 
		0,113.386 0,0 	"/>
</g>
<g id="Layer_1">
	<g>
		<path fill-rule="evenodd" clip-rule="evenodd" fill="#FFFFFF" d="M70.889,7.667c23.573,0,42.76,19.233,42.76,42.806
			c0,23.574-19.188,42.806-42.76,42.806c-23.573,0-42.807-19.232-42.807-42.806C28.082,26.9,47.315,7.667,70.889,7.667L70.889,7.667
			z"/>
		<path fill-rule="evenodd" clip-rule="evenodd" fill="#1D1D1B" d="M70.889,10.544c21.974,0,39.928,17.954,39.928,39.928
			S92.863,90.401,70.889,90.401c-22.02,0-39.928-17.908-39.928-39.928C30.96,28.499,48.869,10.544,70.889,10.544L70.889,10.544z"/>
		<path fill-rule="evenodd" clip-rule="evenodd" fill="#FFFFFF" d="M70.889,11.367c21.517,0,39.106,17.543,39.106,39.106
			S92.406,89.579,70.889,89.579c-21.563,0-39.151-17.543-39.151-39.106S49.326,11.367,70.889,11.367L70.889,11.367z"/>
		<path fill-rule="evenodd" clip-rule="evenodd" fill="#1D3D90" d="M70.889,12.189c21.06,0,38.284,17.177,38.284,38.283
			S91.949,88.756,70.889,88.756c-21.106,0-38.329-17.178-38.329-38.284S49.783,12.189,70.889,12.189L70.889,12.189z"/>
		<path fill-rule="evenodd" clip-rule="evenodd" fill="#FFFFFF" d="M57.092,16.895c0.731,0,1.371,0.594,1.371,1.37
			c0,0.731-0.64,1.325-1.371,1.325c-0.776,0-1.371-0.594-1.371-1.325C55.721,17.489,56.315,16.895,57.092,16.895L57.092,16.895z
			 M62.939,29.412c0.731,0,1.371,0.594,1.371,1.371c0,0.731-0.64,1.371-1.371,1.371c-0.777,0-1.371-0.639-1.371-1.371
			C61.569,30.006,62.163,29.412,62.939,29.412L62.939,29.412z M50.788,28.727c0.731,0,1.37,0.594,1.37,1.371
			c0,0.731-0.639,1.371-1.37,1.371c-0.777,0-1.371-0.64-1.371-1.371C49.417,29.321,50.011,28.727,50.788,28.727L50.788,28.727z
			 M57.046,30.144c0.548,0,1.005,0.502,1.005,1.051c0,0.548-0.457,1.005-1.005,1.005c-0.594,0-1.051-0.457-1.051-1.005
			C55.996,30.646,56.453,30.144,57.046,30.144L57.046,30.144z M68.285,24.752c0.548,0,1.005,0.502,1.005,1.051
			s-0.457,1.005-1.005,1.005c-0.594,0-1.051-0.457-1.051-1.005S67.69,24.752,68.285,24.752L68.285,24.752z M75.777,17.352
			c0.594,0,1.051,0.457,1.051,1.005c0,0.548-0.457,1.005-1.051,1.005c-0.548,0-1.005-0.457-1.005-1.005
			C74.772,17.809,75.229,17.352,75.777,17.352L75.777,17.352z M82.766,15.981c0.595,0,1.051,0.457,1.051,1.005
			s-0.456,1.05-1.051,1.05c-0.548,0-1.005-0.457-1.005-1.05C81.761,16.438,82.218,15.981,82.766,15.981L82.766,15.981z
			 M93.045,22.879c0.548,0,1.005,0.457,1.005,1.005c0,0.594-0.457,1.051-1.005,1.051c-0.594,0-1.051-0.457-1.051-1.051
			C91.995,23.336,92.452,22.879,93.045,22.879L93.045,22.879z M90.35,27.905c0.594,0,1.051,0.457,1.051,1.005
			s-0.457,1.005-1.051,1.005c-0.548,0-1.005-0.457-1.005-1.005S89.802,27.905,90.35,27.905L90.35,27.905z M96.426,30.006
			c0.594,0,1.051,0.457,1.051,1.051c0,0.548-0.457,1.005-1.051,1.005c-0.548,0-1.005-0.457-1.005-1.005
			C95.421,30.463,95.878,30.006,96.426,30.006L96.426,30.006z M94.782,34.711c0.548,0,1.005,0.457,1.005,1.051
			c0,0.548-0.457,1.005-1.005,1.005c-0.594,0-1.051-0.457-1.051-1.005C93.731,35.168,94.188,34.711,94.782,34.711L94.782,34.711z
			 M93,31.696c0.731,0,1.371,0.594,1.371,1.371c0,0.731-0.64,1.371-1.371,1.371c-0.776,0-1.37-0.64-1.37-1.371
			C91.629,32.291,92.223,31.696,93,31.696L93,31.696z M102.776,35.488c0.777,0,1.371,0.594,1.371,1.371
			c0,0.731-0.594,1.371-1.371,1.371c-0.73,0-1.37-0.64-1.37-1.371C101.406,36.082,102.045,35.488,102.776,35.488L102.776,35.488z
			 M103.233,44.306c0.731,0,1.371,0.594,1.371,1.325c0,0.776-0.64,1.371-1.371,1.371c-0.73,0-1.37-0.594-1.37-1.371
			C101.863,44.899,102.502,44.306,103.233,44.306L103.233,44.306z M98.665,41.701c0.776,0,1.371,0.594,1.371,1.371
			c0,0.731-0.595,1.371-1.371,1.371c-0.73,0-1.37-0.64-1.37-1.371C97.294,42.295,97.934,41.701,98.665,41.701L98.665,41.701z
			 M87.152,43.072c0.731,0,1.371,0.594,1.371,1.371c0,0.731-0.64,1.371-1.371,1.371c-0.776,0-1.37-0.64-1.37-1.371
			C85.782,43.666,86.375,43.072,87.152,43.072L87.152,43.072z M70.432,44.716c0.777,0,1.371,0.64,1.371,1.371
			c0,0.777-0.594,1.371-1.371,1.371c-0.731,0-1.371-0.594-1.371-1.371C69.061,45.356,69.701,44.716,70.432,44.716L70.432,44.716z
			 M70.523,49.605c0.731,0,1.371,0.594,1.371,1.371c0,0.73-0.64,1.371-1.371,1.371c-0.776,0-1.371-0.64-1.371-1.371
			C69.152,50.199,69.747,49.605,70.523,49.605L70.523,49.605z M84.594,36.082c0.548,0,1.005,0.457,1.005,1.051
			c0,0.548-0.457,1.005-1.005,1.005c-0.549,0-1.006-0.457-1.006-1.005C83.588,36.539,84.045,36.082,84.594,36.082L84.594,36.082z
			 M88.934,36.448c0.548,0,1.005,0.457,1.005,1.051c0,0.548-0.457,1.005-1.005,1.005c-0.594,0-1.051-0.457-1.051-1.005
			C87.883,36.905,88.34,36.448,88.934,36.448L88.934,36.448z M92.588,38.595c0.549,0,1.005,0.457,1.005,1.005
			c0,0.594-0.456,1.051-1.005,1.051c-0.594,0-1.051-0.457-1.051-1.051C91.538,39.052,91.995,38.595,92.588,38.595L92.588,38.595z
			 M95.604,37.544c0.548,0,1.005,0.457,1.005,1.005S96.152,39.6,95.604,39.6s-1.005-0.502-1.005-1.051S95.056,37.544,95.604,37.544
			L95.604,37.544z M100.172,39.372c0.548,0,1.005,0.457,1.005,1.005c0,0.548-0.457,1.005-1.005,1.005
			c-0.594,0-1.051-0.457-1.051-1.005C99.122,39.829,99.579,39.372,100.172,39.372L100.172,39.372z M92.817,44.351
			c0.549,0,1.005,0.457,1.005,1.051c0,0.548-0.456,1.005-1.005,1.005c-0.594,0-1.051-0.457-1.051-1.005
			C91.766,44.808,92.223,44.351,92.817,44.351L92.817,44.351z M90.122,43.529c0.594,0,1.051,0.457,1.051,1.005
			c0,0.594-0.457,1.05-1.051,1.05c-0.548,0-1.005-0.457-1.005-1.05C89.117,43.986,89.574,43.529,90.122,43.529L90.122,43.529z
			 M86.056,40.468c0.548,0,1.005,0.503,1.005,1.051c0,0.548-0.457,1.005-1.005,1.005c-0.595,0-1.051-0.457-1.051-1.005
			C85.005,40.971,85.461,40.468,86.056,40.468L86.056,40.468z M82.264,41.245c0.548,0,1.005,0.457,1.005,1.051
			c0,0.548-0.457,1.005-1.005,1.005c-0.594,0-1.051-0.457-1.051-1.005C81.213,41.701,81.67,41.245,82.264,41.245L82.264,41.245z
			 M70.615,40.468c0.594,0,1.051,0.503,1.051,1.051c0,0.548-0.457,1.005-1.051,1.005c-0.548,0-1.005-0.457-1.005-1.005
			C69.609,40.971,70.066,40.468,70.615,40.468L70.615,40.468z M76.69,48.463c0.595,0,1.051,0.457,1.051,1.005
			c0,0.594-0.456,1.051-1.051,1.051c-0.548,0-1.005-0.457-1.005-1.051C75.685,48.919,76.142,48.463,76.69,48.463L76.69,48.463z
			 M86.056,47.412c0.548,0,1.005,0.457,1.005,1.005c0,0.594-0.457,1.051-1.005,1.051c-0.595,0-1.051-0.457-1.051-1.051
			C85.005,47.869,85.461,47.412,86.056,47.412L86.056,47.412z M87.792,50.656c0.549,0,1.005,0.457,1.005,1.05
			c0,0.548-0.456,1.005-1.005,1.005c-0.548,0-1.051-0.457-1.051-1.005C86.741,51.112,87.244,50.656,87.792,50.656L87.792,50.656z
			 M100.218,52.346c0.594,0,1.051,0.457,1.051,1.005c0,0.548-0.457,1.051-1.051,1.051c-0.549,0-1.005-0.503-1.005-1.051
			C99.213,52.803,99.669,52.346,100.218,52.346L100.218,52.346z M78.518,50.29c0.548,0,1.051,0.457,1.051,1.005
			c0,0.594-0.503,1.051-1.051,1.051c-0.549,0-1.005-0.457-1.005-1.051C77.513,50.747,77.969,50.29,78.518,50.29L78.518,50.29z
			 M83.452,48.6c0.868,0,1.554,0.731,1.554,1.554c0,0.868-0.686,1.553-1.554,1.553s-1.553-0.685-1.553-1.553
			C81.899,49.331,82.583,48.6,83.452,48.6L83.452,48.6z M102.045,60.615c0.868,0,1.553,0.686,1.553,1.554
			c0,0.867-0.685,1.553-1.553,1.553c-0.822,0-1.554-0.686-1.554-1.553C100.492,61.3,101.223,60.615,102.045,60.615L102.045,60.615z
			 M70.386,64.178c0.868,0,1.553,0.686,1.553,1.554c0,0.867-0.685,1.553-1.553,1.553c-0.822,0-1.554-0.686-1.554-1.553
			C68.833,64.864,69.564,64.178,70.386,64.178L70.386,64.178z M73.127,55.087c0.868,0,1.553,0.685,1.553,1.553
			c0,0.822-0.685,1.553-1.553,1.553s-1.554-0.731-1.554-1.553C71.574,55.772,72.259,55.087,73.127,55.087L73.127,55.087z
			 M83.955,53.762c0.502,0,0.913,0.411,0.913,0.914s-0.411,0.914-0.913,0.914c-0.503,0-0.914-0.411-0.914-0.914
			S83.452,53.762,83.955,53.762L83.955,53.762z M78.426,56.138c0.503,0,0.914,0.411,0.914,0.914c0,0.503-0.411,0.914-0.914,0.914
			c-0.502,0-0.913-0.411-0.913-0.914C77.513,56.549,77.924,56.138,78.426,56.138L78.426,56.138z M75.366,60.98
			c0.503,0,0.914,0.411,0.914,0.914s-0.411,0.913-0.914,0.913s-0.914-0.41-0.914-0.913S74.863,60.98,75.366,60.98L75.366,60.98z
			 M77.787,68.518c0.503,0,0.914,0.411,0.914,0.914c0,0.502-0.411,0.914-0.914,0.914c-0.502,0-0.913-0.412-0.913-0.914
			C76.874,68.929,77.285,68.518,77.787,68.518L77.787,68.518z M70.523,57.646c0.503,0,0.914,0.411,0.914,0.914
			c0,0.502-0.411,0.913-0.914,0.913c-0.502,0-0.914-0.411-0.914-0.913C69.609,58.056,70.021,57.646,70.523,57.646L70.523,57.646z
			 M71.117,53.168c0.503,0,0.914,0.411,0.914,0.914s-0.411,0.914-0.914,0.914c-0.502,0-0.914-0.411-0.914-0.914
			S70.615,53.168,71.117,53.168L71.117,53.168z M65.498,53.625c0.503,0,0.914,0.411,0.914,0.914c0,0.502-0.411,0.914-0.914,0.914
			c-0.502,0-0.914-0.412-0.914-0.914C64.584,54.036,64.995,53.625,65.498,53.625L65.498,53.625z M60.929,58.011
			c0.503,0,0.914,0.411,0.914,0.914c0,0.503-0.411,0.914-0.914,0.914c-0.502,0-0.914-0.411-0.914-0.914
			C60.016,58.422,60.427,58.011,60.929,58.011L60.929,58.011z M66.868,61.574c0.503,0,0.914,0.411,0.914,0.914
			s-0.411,0.914-0.914,0.914c-0.502,0-0.914-0.411-0.914-0.914S66.366,61.574,66.868,61.574L66.868,61.574z M67.143,56.595
			c0.548,0,1.005,0.457,1.005,1.005c0,0.594-0.457,1.051-1.005,1.051c-0.548,0-1.051-0.457-1.051-1.051
			C66.092,57.051,66.594,56.595,67.143,56.595L67.143,56.595z M61.249,46.042c0.503,0,0.914,0.411,0.914,0.914
			s-0.411,0.914-0.914,0.914c-0.502,0-0.914-0.412-0.914-0.914S60.747,46.042,61.249,46.042L61.249,46.042z M91.904,55.681
			c0.548,0,1.005,0.457,1.005,1.005c0,0.594-0.457,1.051-1.005,1.051c-0.595,0-1.051-0.457-1.051-1.051
			C90.853,56.138,91.309,55.681,91.904,55.681L91.904,55.681z M96.655,70.711c0.594,0,1.051,0.457,1.051,1.005
			c0,0.594-0.457,1.051-1.051,1.051c-0.549,0-1.005-0.457-1.005-1.051C95.65,71.168,96.106,70.711,96.655,70.711L96.655,70.711z
			 M74.68,67.148c0.686,0,1.233,0.548,1.233,1.188c0,0.686-0.548,1.233-1.233,1.233c-0.64,0-1.188-0.548-1.188-1.233
			C73.493,67.696,74.041,67.148,74.68,67.148L74.68,67.148z M75.823,69.934c0.502,0,0.913,0.412,0.913,0.914
			c0,0.503-0.411,0.914-0.913,0.914c-0.503,0-0.914-0.411-0.914-0.914C74.909,70.346,75.32,69.934,75.823,69.934L75.823,69.934z
			 M61.889,67.421c1.051,0,1.873,0.868,1.873,1.873c0,1.052-0.822,1.874-1.873,1.874c-1.005,0-1.873-0.822-1.873-1.874
			C60.016,68.29,60.884,67.421,61.889,67.421L61.889,67.421z M60.198,65.092c0.503,0,0.914,0.411,0.914,0.913
			c0,0.503-0.411,0.914-0.914,0.914c-0.502,0-0.914-0.411-0.914-0.914C59.285,65.503,59.696,65.092,60.198,65.092L60.198,65.092z
			 M56.909,60.98c0.502,0,0.914,0.411,0.914,0.914s-0.411,0.913-0.914,0.913s-0.914-0.41-0.914-0.913S56.407,60.98,56.909,60.98
			L56.909,60.98z M53.94,60.843c0.548,0,0.914,0.411,0.914,0.914c0,0.502-0.366,0.913-0.914,0.913c-0.503,0-0.868-0.411-0.868-0.913
			C53.072,61.254,53.437,60.843,53.94,60.843L53.94,60.843z M55.63,66.234c0.502,0,0.914,0.411,0.914,0.914
			c0,0.502-0.411,0.913-0.914,0.913s-0.914-0.411-0.914-0.913C54.716,66.645,55.127,66.234,55.63,66.234L55.63,66.234z
			 M52.98,64.864c0.731,0,1.37,0.594,1.37,1.37c0,0.73-0.639,1.371-1.37,1.371c-0.777,0-1.371-0.641-1.371-1.371
			C51.61,65.458,52.204,64.864,52.98,64.864L52.98,64.864z M51.701,68.107c0.502,0,0.914,0.411,0.914,0.914
			c0,0.502-0.411,0.913-0.914,0.913s-0.914-0.411-0.914-0.913C50.788,68.518,51.199,68.107,51.701,68.107L51.701,68.107z
			 M47.909,65.092c0.914,0,1.645,0.73,1.645,1.645c0,0.959-0.731,1.69-1.645,1.69c-0.959,0-1.69-0.731-1.69-1.69
			C46.219,65.823,46.95,65.092,47.909,65.092L47.909,65.092z M51.975,52.575c0.502,0,0.914,0.411,0.914,0.914
			c0,0.502-0.412,0.914-0.914,0.914s-0.914-0.411-0.914-0.914C51.062,52.985,51.473,52.575,51.975,52.575L51.975,52.575z
			 M49.006,57.508c0.502,0,0.914,0.411,0.914,0.914s-0.411,0.914-0.914,0.914c-0.457,0-0.868-0.411-0.868-0.914
			S48.549,57.508,49.006,57.508L49.006,57.508z M45.899,49.468c0.502,0,0.914,0.366,0.914,0.914c0,0.503-0.411,0.868-0.914,0.868
			s-0.914-0.365-0.914-0.868C44.985,49.833,45.397,49.468,45.899,49.468L45.899,49.468z M78.244,73.726
			c0.686,0,1.233,0.549,1.233,1.233c0,0.686-0.548,1.233-1.233,1.233c-0.64-0.046-1.188-0.548-1.188-1.233
			C77.056,74.275,77.604,73.726,78.244,73.726L78.244,73.726z M72.123,74.366c0.502,0,0.913,0.411,0.913,0.914
			c0,0.502-0.411,0.913-0.913,0.913c-0.503-0.046-0.914-0.411-0.914-0.913C71.208,74.777,71.62,74.366,72.123,74.366L72.123,74.366z
			 M73.996,76.239c0.502,0,0.913,0.411,0.913,0.914c0,0.502-0.411,0.913-0.913,0.913c-0.503,0-0.914-0.411-0.914-0.913
			C73.082,76.65,73.493,76.239,73.996,76.239L73.996,76.239z M75.685,84.005c0.503,0,0.914,0.411,0.914,0.913
			c0,0.503-0.411,0.914-0.914,0.914c-0.502,0-0.913-0.411-0.913-0.914C74.772,84.417,75.183,84.005,75.685,84.005L75.685,84.005z
			 M55.539,73.909c0.502,0,0.914,0.411,0.914,0.914c0,0.502-0.412,0.914-0.914,0.914s-0.914-0.412-0.914-0.914
			C54.625,74.32,55.036,73.909,55.539,73.909L55.539,73.909z M57.823,75.28c0.686,0,1.233,0.548,1.233,1.188
			c0,0.686-0.548,1.233-1.233,1.233c-0.64,0-1.188-0.548-1.188-1.233C56.635,75.828,57.183,75.28,57.823,75.28L57.823,75.28z
			 M57,71.259c0.685,0,1.233,0.503,1.233,1.188c0,0.686-0.548,1.234-1.233,1.234s-1.233-0.549-1.233-1.234
			C55.767,71.762,56.315,71.259,57,71.259L57,71.259z M48.869,72.904c0.502,0,0.914,0.411,0.914,0.914
			c0,0.502-0.412,0.913-0.914,0.913s-0.914-0.411-0.914-0.913C47.955,73.315,48.366,72.904,48.869,72.904L48.869,72.904z
			 M50.148,78.204c0.502,0,0.914,0.411,0.914,0.913c0,0.503-0.411,0.914-0.914,0.914c-0.503,0-0.914-0.411-0.914-0.914
			C49.234,78.615,49.645,78.204,50.148,78.204L50.148,78.204z M46.219,72.904c0.502,0,0.914,0.411,0.914,0.914
			c0,0.502-0.411,0.913-0.914,0.913c-0.503,0-0.914-0.411-0.914-0.913C45.305,73.315,45.716,72.904,46.219,72.904L46.219,72.904z
			 M39.915,67.285c0.502,0,0.914,0.411,0.914,0.914c0,0.502-0.411,0.913-0.914,0.913s-0.914-0.411-0.914-0.913
			C39.001,67.696,39.412,67.285,39.915,67.285L39.915,67.285z M38.635,58.696c0.731,0,1.371,0.639,1.371,1.371
			c0,0.776-0.64,1.37-1.371,1.37c-0.776,0-1.371-0.594-1.371-1.37C37.265,59.335,37.859,58.696,38.635,58.696L38.635,58.696z
			 M37.813,54.859c0.731,0,1.325,0.594,1.325,1.325c0,0.776-0.594,1.371-1.325,1.371c-0.776,0-1.37-0.594-1.37-1.371
			C36.443,55.453,37.037,54.859,37.813,54.859L37.813,54.859z M40.508,44.58c0.777,0,1.371,0.64,1.371,1.371
			c0,0.777-0.594,1.371-1.371,1.371c-0.73,0-1.371-0.594-1.371-1.371C39.138,45.219,39.778,44.58,40.508,44.58L40.508,44.58z
			 M37.95,39.737c0.502,0,0.914,0.412,0.914,0.914s-0.411,0.914-0.914,0.914s-0.914-0.411-0.914-0.914S37.448,39.737,37.95,39.737
			L37.95,39.737z M58.782,41.793c1.69,9.411,0.045,8.041,9.548,9.502c-9.776,1.599-8.041,0.183-9.502,9.548
			c-1.37-9.137-0.137-8.132-9.593-9.548C58.462,49.833,57.138,51.158,58.782,41.793L58.782,41.793z M78.244,31.376
			c1.462,8.086,0.046,6.898,8.224,8.178c-8.406,1.371-6.898,0.137-8.178,8.178c-1.188-7.812-0.092-6.944-8.269-8.178
			C77.969,38.275,76.828,39.417,78.244,31.376L78.244,31.376z M82.401,52.209c1.325,7.583,0,6.441,7.675,7.675
			c-7.857,1.232-6.441,0.137-7.675,7.675c-1.051-7.355-0.091-6.533-7.721-7.675C82.126,58.696,81.031,59.747,82.401,52.209
			L82.401,52.209z"/>
		<path fill-rule="evenodd" clip-rule="evenodd" fill="#FFFFFF" d="M84.411,104.472c0.96-0.731,2.011-1.646,2.97-2.376
			c-2.146-0.137-6.761,0.229-8.588-1.051c1.233-2.741,17.999-2.832,20.832-3.654c-3.198-1.873-2.97-1.051-2.193-4.478
			c-7.949,3.975-17.543,2.284-22.705,8.771C77.833,104.563,80.528,104.334,84.411,104.472L84.411,104.472z M114.882,91.498
			c-3.654,0.411-7.218,0.319-10.05-0.137c-0.366-3.107-0.412-6.259-0.412-7.219c-2.056,2.97-5.162,6.944-4.477,10.965
			C105.609,96.02,110.68,95.655,114.882,91.498L114.882,91.498z M107.574,88.756c5.436,0.548,12.699-0.594,14.847-5.482
			c-3.883,1.006-6.807,1.325-10.964,1.279c-0.914-2.284-1.554-4.614-2.102-6.898C107.665,80.945,107.574,85.102,107.574,88.756
			L107.574,88.756z M130.917,68.061c-3.061,2.924-8.816,7.538-13.431,7.538c-1.188-1.553-2.33-4.386-3.243-6.898
			c-1.006,4.111-1.006,7.949-0.229,12.152C122.146,82.315,129,75.645,130.917,68.061L130.917,68.061z M132.882,53.808
			c-1.782,3.107-7.812,11.101-12.106,12.153c-1.279-0.092-3.335-4.706-3.883-5.803c0.183,3.335,0.273,8.543,2.375,11.33
			C127.765,71.396,133.339,62.213,132.882,53.808L132.882,53.808z M131.375,43.209c-2.102,4.112-4.934,9.914-8.908,12.655
			c-1.553-0.502-3.381-2.833-4.432-4.112c0.092,3.609,2.011,7.172,4.157,9.777C128.862,60.113,132.334,50.61,131.375,43.209
			L131.375,43.209z M122.923,51.204c5.116-4.889,6.121-11.193,4.294-17.68c-1.37,3.7-2.284,7.904-4.659,11.056
			c-1.873-0.548-3.563-1.553-5.3-2.33C117.76,45.676,120.182,48.965,122.923,51.204L122.923,51.204z M121.141,24.616
			c-0.046,0,0.092,8.588-0.73,10.827c-2.513-0.137-3.289-0.366-5.528-1.371c0.777,2.878,5.437,7.218,7.127,7.447
			C124.614,35.991,124.065,29.824,121.141,24.616L121.141,24.616z M118.766,31.971c0.319-5.437-1.051-11.01-4.614-14.482
			c0.365,2.559,0.822,4.979,0.64,7.629c-1.508-0.137-3.427-0.548-4.935-1.234C110.406,25.895,116.208,31.742,118.766,31.971
			L118.766,31.971z M112.598,21.783c-0.502-3.106-3.335-8.68-6.121-9.959c-0.092,1.051,0.411,1.964,0.502,2.878
			c-2.284-1.324-5.116-4.157-8.36-4.751c1.965,3.792,4.935,7.264,8.224,9.914C109.401,21.281,109.857,21.6,112.598,21.783
			L112.598,21.783z M57.366,104.472c-0.959-0.731-2.056-1.646-2.97-2.376c2.102-0.137,6.715,0.229,8.543-1.051
			c-1.233-2.741-18-2.832-20.787-3.654c3.152-1.873,2.924-1.051,2.147-4.478c7.995,3.975,17.543,2.284,22.705,8.771
			C63.945,104.563,61.204,104.334,57.366,104.472L57.366,104.472z M26.895,91.498c3.655,0.411,7.172,0.319,10.005-0.137
			c0.365-3.107,0.411-6.259,0.457-7.219c2.01,2.97,5.162,6.944,4.477,10.965C36.168,96.02,31.097,95.655,26.895,91.498
			L26.895,91.498z M34.204,88.756c-5.481,0.548-12.746-0.594-14.893-5.482c3.883,1.006,6.853,1.325,10.964,1.279
			c0.914-2.284,1.554-4.614,2.147-6.898C34.067,80.945,34.204,85.102,34.204,88.756L34.204,88.756z M10.813,68.061
			c3.061,2.924,8.817,7.538,13.432,7.538c1.188-1.553,2.33-4.386,3.243-6.898c1.005,4.111,1.005,7.949,0.229,12.152
			C19.631,82.315,12.732,75.645,10.813,68.061L10.813,68.061z M8.849,53.808c1.782,3.107,7.812,11.101,12.106,12.153
			c1.325-0.092,3.38-4.706,3.883-5.803c-0.183,3.335-0.274,8.543-2.376,11.33C13.966,71.396,8.392,62.213,8.849,53.808L8.849,53.808
			z M10.402,43.209c2.056,4.112,4.888,9.914,8.863,12.655c1.553-0.502,3.381-2.833,4.432-4.112c-0.092,3.609-2.01,7.172-4.157,9.777
			C12.87,60.113,9.397,50.61,10.402,43.209L10.402,43.209z M18.854,51.204c-5.162-4.889-6.167-11.193-4.34-17.68
			c1.37,3.7,2.284,7.904,4.705,11.056c1.828-0.548,3.563-1.553,5.254-2.33C23.971,45.676,21.549,48.965,18.854,51.204L18.854,51.204
			z M20.636,24.616c0,0-0.137,8.588,0.685,10.827c2.513-0.137,3.335-0.366,5.528-1.371c-0.776,2.878-5.437,7.218-7.081,7.447
			C17.118,35.991,17.667,29.824,20.636,24.616L20.636,24.616z M22.966,31.971c-0.32-5.437,1.051-11.01,4.614-14.482
			c-0.32,2.559-0.822,4.979-0.64,7.629c1.554-0.137,3.472-0.548,4.934-1.234C31.326,25.895,25.524,31.742,22.966,31.971
			L22.966,31.971z M29.179,21.783c0.457-3.106,3.289-8.68,6.076-9.959c0.092,1.051-0.365,1.964-0.502,2.878
			c2.285-1.324,5.117-4.157,8.361-4.751c-1.919,3.792-4.934,7.264-8.224,9.914C32.331,21.281,31.874,21.6,29.179,21.783
			L29.179,21.783z"/>
	</g>
</g>
<g id="Layer_2" display="none">
	<path display="inline" fill-rule="evenodd" clip-rule="evenodd" fill="#FFFFFF" d="M-14.039,115.208h0.868
		c1.097,0,1.736-0.137,2.01-0.319c0.229-0.229,0.365-0.777,0.365-1.69v-2.97h0.594v2.97c0,1.097-0.183,1.781-0.548,2.102
		c-0.366,0.319-1.188,0.457-2.375,0.457h-0.914c-1.234,0-2.056-0.138-2.421-0.457c-0.366-0.32-0.548-1.005-0.548-2.102v-2.97h0.594
		v2.97c0,0.913,0.137,1.462,0.412,1.69C-15.775,115.071-15.089,115.208-14.039,115.208L-14.039,115.208z M-9.333,110.228h1.371
		l4.477,4.979v-4.979h0.64v5.528H-3.76l-4.614-5.117h-0.32v5.117h-0.639V110.228L-9.333,110.228z M-1.613,115.756v-5.528h0.64v5.528
		H-1.613L-1.613,115.756z M6.336,110.228v0.548H3.504v4.98H2.865v-4.98H0.032v-0.548H6.336L6.336,110.228z M6.976,110.228h5.208
		v0.548H7.616v1.828h4.432v0.594H7.616v2.01h4.568v0.549H6.976V110.228L6.976,110.228z M13.28,115.756v-5.528h3.883
		c1.051,0,1.782,0.138,2.147,0.503c0.411,0.319,0.594,1.005,0.594,2.056v0.411c0,1.051-0.183,1.735-0.502,2.102
		c-0.366,0.319-1.051,0.457-2.056,0.457H13.28L13.28,115.756z M19.265,113.198v-0.411c0-0.868-0.091-1.416-0.366-1.645
		c-0.274-0.229-0.822-0.366-1.645-0.366h-3.38v4.432h3.518c0.822,0,1.371-0.137,1.553-0.319
		C19.174,114.66,19.265,114.111,19.265,113.198L19.265,113.198z M24.93,110.228h5.208v0.548h-4.569v1.828h4.432v0.594h-4.432v2.559
		H24.93V110.228L24.93,110.228z M31.143,110.228h5.208v0.548h-4.614v1.828h4.431v0.594h-4.431v2.01h4.614v0.549h-5.208V110.228
		L31.143,110.228z M37.402,115.756v-5.528h3.883c1.096,0,1.782,0.138,2.193,0.503c0.365,0.319,0.548,1.005,0.548,2.056v0.411
		c0,1.051-0.183,1.735-0.503,2.102c-0.32,0.319-1.005,0.457-2.056,0.457H37.402L37.402,115.756z M43.432,113.198v-0.411
		c0-0.868-0.137-1.416-0.411-1.645c-0.229-0.229-0.777-0.366-1.645-0.366h-3.335v4.432h3.518c0.822,0,1.325-0.137,1.554-0.319
		C43.341,114.66,43.432,114.111,43.432,113.198L43.432,113.198z M44.849,110.228h5.208v0.548h-4.569v1.828h4.432v0.594h-4.432v2.01
		h4.569v0.549h-5.208V110.228L44.849,110.228z M57.366,111.644c0,0.366-0.046,0.64-0.183,0.822
		c-0.091,0.138-0.183,0.229-0.365,0.274c0.229,0.046,0.411,0.183,0.548,0.365c0.183,0.274,0.274,0.595,0.274,1.051v1.6H57v-1.6
		c0-0.365-0.091-0.64-0.274-0.776c-0.137-0.137-0.502-0.183-1.005-0.183h-4.02v2.559h-0.594v-5.528h4.295
		c0.685,0,1.188,0.091,1.507,0.319C57.183,110.776,57.366,111.142,57.366,111.644L57.366,111.644z M51.701,112.558h3.792
		c0.457,0,0.777-0.046,0.96-0.229c0.182-0.137,0.274-0.365,0.274-0.64s-0.092-0.502-0.274-0.64
		c-0.183-0.137-0.503-0.229-0.914-0.229h-3.837V112.558L51.701,112.558z M61.112,110.228h0.96l3.015,5.528h-0.686l-0.731-1.325
		h-4.157l-0.731,1.325h-0.685L61.112,110.228L61.112,110.228z M61.615,110.593l-1.782,3.244h3.518L61.615,110.593L61.615,110.593z
		 M71.62,110.228v0.548h-2.833v4.98h-0.64v-4.98h-2.832v-0.548H71.62L71.62,110.228z M72.625,115.756v-5.528h0.594v5.528H72.625
		L72.625,115.756z M77.467,115.756c-1.233,0-2.011-0.138-2.376-0.457c-0.411-0.32-0.594-1.005-0.594-2.102v-0.457
		c0-1.051,0.183-1.736,0.594-2.102c0.365-0.32,1.143-0.457,2.376-0.457h0.914c1.233,0,2.056,0.137,2.421,0.457
		c0.365,0.365,0.548,1.051,0.548,2.102v0.457c0,1.097-0.183,1.781-0.548,2.102c-0.365,0.319-1.188,0.457-2.421,0.457H77.467
		L77.467,115.756z M80.756,113.198v-0.457c0-0.914-0.137-1.462-0.411-1.645c-0.229-0.229-0.914-0.32-1.964-0.32h-0.914
		c-1.051,0-1.69,0.092-1.965,0.32c-0.273,0.183-0.365,0.73-0.365,1.645v0.457c0,0.913,0.092,1.462,0.365,1.69
		c0.274,0.183,0.914,0.319,1.965,0.319h0.914c1.05,0,1.735-0.137,1.964-0.319C80.62,114.66,80.756,114.111,80.756,113.198
		L80.756,113.198z M82.172,110.228h1.371l4.477,4.979v-4.979h0.594v5.528h-0.868l-4.613-5.117h-0.32v5.117h-0.64V110.228
		L82.172,110.228z M96.655,115.756c-1.188,0-2.011-0.138-2.376-0.457c-0.365-0.32-0.548-1.005-0.548-2.102v-0.457
		c0-1.051,0.183-1.736,0.548-2.102c0.365-0.32,1.188-0.457,2.376-0.457h0.959c1.188,0,2.011,0.137,2.376,0.457
		c0.365,0.365,0.548,1.051,0.548,2.102v0.457c0,1.097-0.183,1.781-0.548,2.102c-0.365,0.319-1.188,0.457-2.376,0.457H96.655
		L96.655,115.756z M99.944,113.198v-0.457c0-0.914-0.137-1.462-0.365-1.645c-0.274-0.229-0.914-0.32-1.965-0.32h-0.959
		c-1.051,0-1.69,0.092-1.965,0.32c-0.229,0.183-0.365,0.73-0.365,1.645v0.457c0,0.913,0.137,1.462,0.365,1.69
		c0.274,0.183,0.914,0.319,1.965,0.319h0.959c1.051,0,1.69-0.137,1.965-0.319C99.807,114.66,99.944,114.111,99.944,113.198
		L99.944,113.198z M101.406,110.228h5.208v0.548H102v1.828h4.432v0.594H102v2.559h-0.594V110.228L101.406,110.228z M117.806,111.644
		v0.32c0,0.457-0.137,0.822-0.456,1.051c-0.32,0.229-0.823,0.365-1.508,0.365h-3.381v2.376h-0.686v-5.528h4.066
		c0.685,0,1.188,0.091,1.508,0.365C117.669,110.822,117.806,111.188,117.806,111.644L117.806,111.644z M112.461,110.776v2.011h3.335
		c0.503,0,0.868-0.046,1.051-0.183c0.229-0.138,0.319-0.366,0.319-0.686v-0.274c0-0.273-0.091-0.502-0.273-0.64
		c-0.229-0.137-0.594-0.229-1.097-0.229H112.461L112.461,110.776z M118.72,110.228h0.594v4.979h4.386v0.549h-4.979V110.228
		L118.72,110.228z M127.217,110.228h0.914l3.061,5.528h-0.73l-0.731-1.325h-4.157l-0.73,1.325h-0.686L127.217,110.228
		L127.217,110.228z M127.674,110.593l-1.736,3.244h3.519L127.674,110.593L127.674,110.593z M131.695,110.228h1.324l4.523,4.979
		v-4.979h0.594v5.528h-0.868l-4.66-5.117h-0.319v5.117h-0.594V110.228L131.695,110.228z M139.049,110.228h5.208v0.548h-4.568v1.828
		h4.432v0.594h-4.432v2.01h4.568v0.549h-5.208V110.228L139.049,110.228z M151.248,110.228v0.548h-2.832v4.98h-0.594v-4.98h-2.879
		v-0.548H151.248L151.248,110.228z M153.668,110.228h3.062c1.324,0,1.964,0.503,1.964,1.554H158.1c0-0.32-0.092-0.594-0.319-0.731
		c-0.229-0.183-0.64-0.274-1.188-0.274h-2.969c-0.457,0-0.731,0.092-0.914,0.229c-0.137,0.138-0.229,0.366-0.229,0.686
		c0,0.365,0.092,0.594,0.32,0.731c0.228,0.091,0.685,0.183,1.416,0.183l1.827,0.045c1.051,0,1.781,0.092,2.147,0.32
		c0.365,0.229,0.548,0.64,0.548,1.233s-0.137,0.959-0.411,1.233c-0.32,0.229-0.822,0.32-1.508,0.32h-3.015
		c-0.594,0-1.051-0.138-1.371-0.366c-0.365-0.273-0.502-0.686-0.502-1.188h0.594c0,0.32,0.091,0.594,0.319,0.73
		c0.229,0.184,0.64,0.274,1.188,0.274h2.786c0.457,0,0.822-0.091,1.005-0.229c0.229-0.183,0.32-0.411,0.32-0.776
		s-0.092-0.64-0.365-0.776c-0.274-0.138-0.777-0.229-1.6-0.229l-2.01-0.046c-0.914,0-1.554-0.092-1.873-0.32
		c-0.274-0.228-0.411-0.594-0.411-1.142c0-0.502,0.137-0.868,0.411-1.143C152.618,110.319,153.029,110.228,153.668,110.228
		L153.668,110.228z"/>
</g>
</svg>
