<svg xmlns="http://www.w3.org/2000/svg" xml:space="preserve" viewBox="0 0 141.732 113.386"><g fill-rule="evenodd" clip-rule="evenodd"><path fill="#FFF" d="M70.889 7.667c23.573 0 42.76 19.233 42.76 42.806 0 23.574-19.188 42.806-42.76 42.806-23.573 0-42.807-19.232-42.807-42.806 0-23.573 19.233-42.806 42.807-42.806z"/><path fill="#1D1D1B" d="M70.889 10.544c21.974 0 39.928 17.954 39.928 39.928S92.863 90.401 70.889 90.401c-22.02 0-39.928-17.908-39.928-39.928-.001-21.974 17.908-39.929 39.928-39.929z"/><path fill="#FFF" d="M70.889 11.367c21.517 0 39.106 17.543 39.106 39.106S92.406 89.579 70.889 89.579c-21.563 0-39.151-17.543-39.151-39.106s17.588-39.106 39.151-39.106z"/><path fill="#1D3D90" d="M70.889 12.189c21.06 0 38.284 17.177 38.284 38.283S91.949 88.756 70.889 88.756c-21.106 0-38.329-17.178-38.329-38.284s17.223-38.283 38.329-38.283z"/><path fill="#FFF" d="M57.092 16.895c.731 0 1.371.594 1.371 1.37 0 .731-.64 1.325-1.371 1.325-.776 0-1.371-.594-1.371-1.325 0-.776.594-1.37 1.371-1.37zm5.847 12.517c.731 0 1.371.594 1.371 1.371 0 .731-.64 1.371-1.371 1.371a1.374 1.374 0 0 1-1.371-1.371 1.348 1.348 0 0 1 1.371-1.371zm-12.151-.685c.731 0 1.37.594 1.37 1.371 0 .731-.639 1.371-1.37 1.371-.777 0-1.371-.64-1.371-1.371 0-.777.594-1.371 1.371-1.371zm6.258 1.417c.548 0 1.005.502 1.005 1.051 0 .548-.457 1.005-1.005 1.005-.594 0-1.051-.457-1.051-1.005a1.064 1.064 0 0 1 1.051-1.051zm11.239-5.392c.548 0 1.005.502 1.005 1.051s-.457 1.005-1.005 1.005c-.594 0-1.051-.457-1.051-1.005s.456-1.051 1.051-1.051zm7.492-7.4c.594 0 1.051.457 1.051 1.005 0 .548-.457 1.005-1.051 1.005a1.014 1.014 0 0 1-1.005-1.005c0-.548.457-1.005 1.005-1.005zm6.989-1.371c.595 0 1.051.457 1.051 1.005s-.456 1.05-1.051 1.05c-.548 0-1.005-.457-1.005-1.05 0-.548.457-1.005 1.005-1.005zm10.279 6.898c.548 0 1.005.457 1.005 1.005 0 .594-.457 1.051-1.005 1.051a1.034 1.034 0 0 1-1.051-1.051c.001-.548.458-1.005 1.051-1.005zm-2.695 5.026c.594 0 1.051.457 1.051 1.005s-.457 1.005-1.051 1.005c-.548 0-1.005-.457-1.005-1.005s.457-1.005 1.005-1.005zm6.076 2.101c.594 0 1.051.457 1.051 1.051 0 .548-.457 1.005-1.051 1.005a1.014 1.014 0 0 1-1.005-1.005c0-.594.457-1.051 1.005-1.051zm-1.644 4.705c.548 0 1.005.457 1.005 1.051 0 .548-.457 1.005-1.005 1.005-.594 0-1.051-.457-1.051-1.005 0-.594.457-1.051 1.051-1.051zM93 31.696c.731 0 1.371.594 1.371 1.371 0 .731-.64 1.371-1.371 1.371-.776 0-1.37-.64-1.37-1.371A1.346 1.346 0 0 1 93 31.696zm9.776 3.792c.777 0 1.371.594 1.371 1.371 0 .731-.594 1.371-1.371 1.371-.73 0-1.37-.64-1.37-1.371 0-.777.639-1.371 1.37-1.371zm.457 8.818c.731 0 1.371.594 1.371 1.325 0 .776-.64 1.371-1.371 1.371-.73 0-1.37-.594-1.37-1.371 0-.732.639-1.325 1.37-1.325zm-4.568-2.605c.776 0 1.371.594 1.371 1.371 0 .731-.595 1.371-1.371 1.371-.73 0-1.37-.64-1.37-1.371a1.373 1.373 0 0 1 1.37-1.371zm-11.513 1.371c.731 0 1.371.594 1.371 1.371 0 .731-.64 1.371-1.371 1.371-.776 0-1.37-.64-1.37-1.371 0-.777.593-1.371 1.37-1.371zm-16.72 1.644c.777 0 1.371.64 1.371 1.371 0 .777-.594 1.371-1.371 1.371a1.375 1.375 0 0 1-1.371-1.371c0-.731.64-1.371 1.371-1.371zm.091 4.889c.731 0 1.371.594 1.371 1.371 0 .73-.64 1.371-1.371 1.371-.776 0-1.371-.64-1.371-1.371 0-.777.595-1.371 1.371-1.371zm14.071-13.523c.548 0 1.005.457 1.005 1.051 0 .548-.457 1.005-1.005 1.005a1.014 1.014 0 0 1-1.006-1.005c0-.594.457-1.051 1.006-1.051zm4.34.366c.548 0 1.005.457 1.005 1.051 0 .548-.457 1.005-1.005 1.005-.594 0-1.051-.457-1.051-1.005 0-.594.457-1.051 1.051-1.051zm3.654 2.147c.549 0 1.005.457 1.005 1.005 0 .594-.456 1.051-1.005 1.051a1.034 1.034 0 0 1-1.051-1.051c.001-.548.458-1.005 1.051-1.005zm3.016-1.051c.548 0 1.005.457 1.005 1.005s-.457 1.051-1.005 1.051-1.005-.502-1.005-1.051.457-1.005 1.005-1.005zm4.568 1.828c.548 0 1.005.457 1.005 1.005 0 .548-.457 1.005-1.005 1.005-.594 0-1.051-.457-1.051-1.005.001-.548.458-1.005 1.051-1.005zm-7.355 4.979c.549 0 1.005.457 1.005 1.051 0 .548-.456 1.005-1.005 1.005-.594 0-1.051-.457-1.051-1.005 0-.594.457-1.051 1.051-1.051zm-2.695-.822c.594 0 1.051.457 1.051 1.005 0 .594-.457 1.05-1.051 1.05-.548 0-1.005-.457-1.005-1.05 0-.548.457-1.005 1.005-1.005zm-4.066-3.061c.548 0 1.005.503 1.005 1.051 0 .548-.457 1.005-1.005 1.005-.595 0-1.051-.457-1.051-1.005 0-.548.456-1.051 1.051-1.051zm-3.792.777c.548 0 1.005.457 1.005 1.051 0 .548-.457 1.005-1.005 1.005-.594 0-1.051-.457-1.051-1.005 0-.595.457-1.051 1.051-1.051zm-11.649-.777c.594 0 1.051.503 1.051 1.051 0 .548-.457 1.005-1.051 1.005a1.014 1.014 0 0 1-1.005-1.005c-.001-.548.456-1.051 1.005-1.051zm6.075 7.995c.595 0 1.051.457 1.051 1.005 0 .594-.456 1.051-1.051 1.051-.548 0-1.005-.457-1.005-1.051 0-.549.457-1.005 1.005-1.005zm9.366-1.051c.548 0 1.005.457 1.005 1.005 0 .594-.457 1.051-1.005 1.051a1.034 1.034 0 0 1-1.051-1.051c0-.548.456-1.005 1.051-1.005zm1.736 3.244c.549 0 1.005.457 1.005 1.05 0 .548-.456 1.005-1.005 1.005-.548 0-1.051-.457-1.051-1.005 0-.594.503-1.05 1.051-1.05zm12.426 1.69c.594 0 1.051.457 1.051 1.005 0 .548-.457 1.051-1.051 1.051-.549 0-1.005-.503-1.005-1.051 0-.548.456-1.005 1.005-1.005zm-21.7-2.056c.548 0 1.051.457 1.051 1.005 0 .594-.503 1.051-1.051 1.051-.549 0-1.005-.457-1.005-1.051 0-.548.456-1.005 1.005-1.005zm4.934-1.69c.868 0 1.554.731 1.554 1.554 0 .868-.686 1.553-1.554 1.553s-1.553-.685-1.553-1.553c0-.823.684-1.554 1.553-1.554zm18.593 12.015a1.54 1.54 0 0 1 1.553 1.554 1.54 1.54 0 0 1-1.553 1.553c-.822 0-1.554-.686-1.554-1.553a1.571 1.571 0 0 1 1.554-1.554zm-31.659 3.563a1.54 1.54 0 0 1 1.553 1.554 1.54 1.54 0 0 1-1.553 1.553c-.822 0-1.554-.686-1.554-1.553a1.572 1.572 0 0 1 1.554-1.554zm2.741-9.091a1.54 1.54 0 0 1 1.553 1.553c0 .822-.685 1.553-1.553 1.553s-1.554-.731-1.554-1.553a1.541 1.541 0 0 1 1.554-1.553zm10.828-1.325c.502 0 .913.411.913.914s-.411.914-.913.914c-.503 0-.914-.411-.914-.914s.411-.914.914-.914zm-5.529 2.376c.503 0 .914.411.914.914a.916.916 0 0 1-.914.914.916.916 0 0 1-.913-.914c0-.503.411-.914.913-.914zm-3.06 4.842c.503 0 .914.411.914.914s-.411.913-.914.913-.914-.41-.914-.913.411-.914.914-.914zm2.421 7.538c.503 0 .914.411.914.914a.917.917 0 0 1-.914.914.917.917 0 0 1-.913-.914c0-.503.411-.914.913-.914zm-7.264-10.872c.503 0 .914.411.914.914a.916.916 0 0 1-.914.913.917.917 0 0 1-.914-.913c0-.504.412-.914.914-.914zm.594-4.478c.503 0 .914.411.914.914s-.411.914-.914.914c-.502 0-.914-.411-.914-.914s.412-.914.914-.914zm-5.619.457c.503 0 .914.411.914.914a.917.917 0 0 1-.914.914.918.918 0 0 1-.914-.914c0-.503.411-.914.914-.914zm-4.569 4.386c.503 0 .914.411.914.914a.916.916 0 0 1-.914.914.917.917 0 0 1-.914-.914.918.918 0 0 1 .914-.914zm5.939 3.563c.503 0 .914.411.914.914s-.411.914-.914.914c-.502 0-.914-.411-.914-.914s.412-.914.914-.914zm.275-4.979c.548 0 1.005.457 1.005 1.005 0 .594-.457 1.051-1.005 1.051a1.063 1.063 0 0 1-1.051-1.051c0-.549.502-1.005 1.051-1.005zm-5.894-10.553c.503 0 .914.411.914.914s-.411.914-.914.914c-.502 0-.914-.412-.914-.914s.412-.914.914-.914zm30.655 9.639c.548 0 1.005.457 1.005 1.005 0 .594-.457 1.051-1.005 1.051a1.034 1.034 0 0 1-1.051-1.051c0-.548.456-1.005 1.051-1.005zm4.751 15.03c.594 0 1.051.457 1.051 1.005 0 .594-.457 1.051-1.051 1.051-.549 0-1.005-.457-1.005-1.051 0-.548.456-1.005 1.005-1.005zM74.68 67.148c.686 0 1.233.548 1.233 1.188 0 .686-.548 1.233-1.233 1.233-.64 0-1.188-.548-1.188-1.233a1.21 1.21 0 0 1 1.188-1.188zm1.143 2.786c.502 0 .913.412.913.914a.916.916 0 0 1-.913.914.916.916 0 0 1-.914-.914c0-.502.411-.914.914-.914zm-13.934-2.513c1.051 0 1.873.868 1.873 1.873a1.852 1.852 0 0 1-1.873 1.874 1.881 1.881 0 0 1-1.873-1.874c0-1.004.868-1.873 1.873-1.873zm-1.691-2.329c.503 0 .914.411.914.913a.916.916 0 0 1-.914.914.917.917 0 0 1-.914-.914.917.917 0 0 1 .914-.913zm-3.289-4.112c.502 0 .914.411.914.914s-.411.913-.914.913-.914-.41-.914-.913.412-.914.914-.914zm-2.969-.137c.548 0 .914.411.914.914 0 .502-.366.913-.914.913-.503 0-.868-.411-.868-.913 0-.503.365-.914.868-.914zm1.69 5.391c.502 0 .914.411.914.914 0 .502-.411.913-.914.913s-.914-.411-.914-.913c0-.503.411-.914.914-.914zm-2.65-1.37c.731 0 1.37.594 1.37 1.37 0 .73-.639 1.371-1.37 1.371a1.376 1.376 0 0 1-1.371-1.371 1.347 1.347 0 0 1 1.371-1.37zm-1.279 3.243c.502 0 .914.411.914.914 0 .502-.411.913-.914.913s-.914-.411-.914-.913a.918.918 0 0 1 .914-.914zm-3.792-3.015c.914 0 1.645.73 1.645 1.645 0 .959-.731 1.69-1.645 1.69-.959 0-1.69-.731-1.69-1.69 0-.914.731-1.645 1.69-1.645zm4.066-12.517c.502 0 .914.411.914.914 0 .502-.412.914-.914.914s-.914-.411-.914-.914a.917.917 0 0 1 .914-.914zm-2.969 4.933c.502 0 .914.411.914.914s-.411.914-.914.914c-.457 0-.868-.411-.868-.914s.411-.914.868-.914zm-3.107-8.04c.502 0 .914.366.914.914 0 .503-.411.868-.914.868s-.914-.365-.914-.868c0-.549.412-.914.914-.914zm32.345 24.258c.686 0 1.233.549 1.233 1.233 0 .686-.548 1.233-1.233 1.233-.64-.046-1.188-.548-1.188-1.233 0-.684.548-1.233 1.188-1.233zm-6.121.64c.502 0 .913.411.913.914a.916.916 0 0 1-.913.913c-.503-.046-.914-.411-.914-.913a.916.916 0 0 1 .914-.914zm1.873 1.873c.502 0 .913.411.913.914a.916.916 0 0 1-.913.913.916.916 0 0 1-.914-.913c0-.503.411-.914.914-.914zm1.689 7.766c.503 0 .914.411.914.913a.916.916 0 0 1-.914.914.916.916 0 0 1-.913-.914c0-.501.411-.913.913-.913zM55.539 73.909c.502 0 .914.411.914.914 0 .502-.412.914-.914.914s-.914-.412-.914-.914c0-.503.411-.914.914-.914zm2.284 1.371c.686 0 1.233.548 1.233 1.188 0 .686-.548 1.233-1.233 1.233-.64 0-1.188-.548-1.188-1.233 0-.64.548-1.188 1.188-1.188zM57 71.259c.685 0 1.233.503 1.233 1.188 0 .686-.548 1.234-1.233 1.234s-1.233-.549-1.233-1.234c0-.685.548-1.188 1.233-1.188zm-8.131 1.645c.502 0 .914.411.914.914 0 .502-.412.913-.914.913s-.914-.411-.914-.913c0-.503.411-.914.914-.914zm1.279 5.3c.502 0 .914.411.914.913a.916.916 0 0 1-.914.914.916.916 0 0 1-.914-.914c0-.502.411-.913.914-.913zm-3.929-5.3c.502 0 .914.411.914.914a.916.916 0 0 1-.914.913.916.916 0 0 1-.914-.913c0-.503.411-.914.914-.914zm-6.304-5.619c.502 0 .914.411.914.914 0 .502-.411.913-.914.913s-.914-.411-.914-.913c0-.503.411-.914.914-.914zm-1.28-8.589c.731 0 1.371.639 1.371 1.371 0 .776-.64 1.37-1.371 1.37a1.347 1.347 0 0 1-1.371-1.37 1.376 1.376 0 0 1 1.371-1.371zm-.822-3.837c.731 0 1.325.594 1.325 1.325 0 .776-.594 1.371-1.325 1.371-.776 0-1.37-.594-1.37-1.371 0-.731.594-1.325 1.37-1.325zm2.695-10.279c.777 0 1.371.64 1.371 1.371 0 .777-.594 1.371-1.371 1.371-.73 0-1.371-.594-1.371-1.371.001-.732.641-1.371 1.371-1.371zm-2.558-4.843c.502 0 .914.412.914.914s-.411.914-.914.914-.914-.411-.914-.914.412-.914.914-.914zm20.832 2.056c1.69 9.411.045 8.041 9.548 9.502-9.776 1.599-8.041.183-9.502 9.548-1.37-9.137-.137-8.132-9.593-9.548 9.227-1.462 7.903-.137 9.547-9.502zm19.462-10.417c1.462 8.086.046 6.898 8.224 8.178-8.406 1.371-6.898.137-8.178 8.178-1.188-7.812-.092-6.944-8.269-8.178 7.948-1.279 6.807-.137 8.223-8.178zm4.157 20.833c1.325 7.583 0 6.441 7.675 7.675-7.857 1.232-6.441.137-7.675 7.675-1.051-7.355-.091-6.533-7.721-7.675 7.446-1.188 6.351-.137 7.721-7.675zM84.411 104.472c.96-.731 2.011-1.646 2.97-2.376-2.146-.137-6.761.229-8.588-1.051 1.233-2.741 17.999-2.832 20.832-3.654-3.198-1.873-2.97-1.051-2.193-4.478-7.949 3.975-17.543 2.284-22.705 8.771 3.106 2.879 5.801 2.65 9.684 2.788zm30.471-12.974c-3.654.411-7.218.319-10.05-.137-.366-3.107-.412-6.259-.412-7.219-2.056 2.97-5.162 6.944-4.477 10.965 5.666.913 10.737.548 14.939-3.609zm-7.308-2.742c5.436.548 12.699-.594 14.847-5.482-3.883 1.006-6.807 1.325-10.964 1.279-.914-2.284-1.554-4.614-2.102-6.898-1.69 3.29-1.781 7.447-1.781 11.101zm23.343-20.695c-3.061 2.924-8.816 7.538-13.431 7.538-1.188-1.553-2.33-4.386-3.243-6.898-1.006 4.111-1.006 7.949-.229 12.152 8.132 1.462 14.986-5.208 16.903-12.792zm1.965-14.253c-1.782 3.107-7.812 11.101-12.106 12.153-1.279-.092-3.335-4.706-3.883-5.803.183 3.335.273 8.543 2.375 11.33 8.497-.092 14.071-9.275 13.614-17.68zm-1.507-10.599c-2.102 4.112-4.934 9.914-8.908 12.655-1.553-.502-3.381-2.833-4.432-4.112.092 3.609 2.011 7.172 4.157 9.777 6.67-1.416 10.142-10.919 9.183-18.32zm-8.452 7.995c5.116-4.889 6.121-11.193 4.294-17.68-1.37 3.7-2.284 7.904-4.659 11.056-1.873-.548-3.563-1.553-5.3-2.33.502 3.426 2.924 6.715 5.665 8.954zm-1.782-26.588c-.046 0 .092 8.588-.73 10.827-2.513-.137-3.289-.366-5.528-1.371.777 2.878 5.437 7.218 7.127 7.447 2.604-5.528 2.055-11.695-.869-16.903zm-2.375 7.355c.319-5.437-1.051-11.01-4.614-14.482.365 2.559.822 4.979.64 7.629-1.508-.137-3.427-.548-4.935-1.234.549 2.011 6.351 7.858 8.909 8.087zm-6.168-10.188c-.502-3.106-3.335-8.68-6.121-9.959-.092 1.051.411 1.964.502 2.878-2.284-1.324-5.116-4.157-8.36-4.751 1.965 3.792 4.935 7.264 8.224 9.914 2.558 1.416 3.014 1.735 5.755 1.918zm-55.232 82.689c-.959-.731-2.056-1.646-2.97-2.376 2.102-.137 6.715.229 8.543-1.051-1.233-2.741-18-2.832-20.787-3.654 3.152-1.873 2.924-1.051 2.147-4.478 7.995 3.975 17.543 2.284 22.705 8.771-3.059 2.879-5.8 2.65-9.638 2.788zM26.895 91.498c3.655.411 7.172.319 10.005-.137.365-3.107.411-6.259.457-7.219 2.01 2.97 5.162 6.944 4.477 10.965-5.666.913-10.737.548-14.939-3.609zm7.309-2.742c-5.481.548-12.746-.594-14.893-5.482 3.883 1.006 6.853 1.325 10.964 1.279.914-2.284 1.554-4.614 2.147-6.898 1.645 3.29 1.782 7.447 1.782 11.101zM10.813 68.061c3.061 2.924 8.817 7.538 13.432 7.538 1.188-1.553 2.33-4.386 3.243-6.898 1.005 4.111 1.005 7.949.229 12.152-8.086 1.462-14.985-5.208-16.904-12.792zM8.849 53.808c1.782 3.107 7.812 11.101 12.106 12.153 1.325-.092 3.38-4.706 3.883-5.803-.183 3.335-.274 8.543-2.376 11.33-8.496-.092-14.07-9.275-13.613-17.68zm1.553-10.599c2.056 4.112 4.888 9.914 8.863 12.655 1.553-.502 3.381-2.833 4.432-4.112-.092 3.609-2.01 7.172-4.157 9.777-6.67-1.416-10.143-10.919-9.138-18.32zm8.452 7.995c-5.162-4.889-6.167-11.193-4.34-17.68 1.37 3.7 2.284 7.904 4.705 11.056 1.828-.548 3.563-1.553 5.254-2.33-.502 3.426-2.924 6.715-5.619 8.954zm1.782-26.588s-.137 8.588.685 10.827c2.513-.137 3.335-.366 5.528-1.371-.776 2.878-5.437 7.218-7.081 7.447-2.65-5.528-2.101-11.695.868-16.903zm2.33 7.355c-.32-5.437 1.051-11.01 4.614-14.482-.32 2.559-.822 4.979-.64 7.629 1.554-.137 3.472-.548 4.934-1.234-.548 2.011-6.35 7.858-8.908 8.087zm6.213-10.188c.457-3.106 3.289-8.68 6.076-9.959.092 1.051-.365 1.964-.502 2.878 2.285-1.324 5.117-4.157 8.361-4.751-1.919 3.792-4.934 7.264-8.224 9.914-2.559 1.416-3.016 1.735-5.711 1.918z"/></g></svg>