<svg clip-rule="evenodd" fill-rule="evenodd" stroke-linejoin="round" stroke-miterlimit="2" viewBox="0 0 876 853" xmlns="http://www.w3.org/2000/svg"><path d="m.5 852.384c0-27.147.149-148.885.154-164.945 47.03 50.028 119.992 75.691 183.954 94.51-105.376-88.326-170.164-224.737-162.773-362.973 3.198-154.059 90.852-307.501 231.936-374.747 82.069-42.489 178.867-54.506 269.018-35.441 144.81 29.69 268.25 142.187 310.222 284.177 50.025 151.075 8.894 376.647-135.479 484.526 72.605-17.274 136.926-43.45 176.718-89.103 2.465 54.558.756 109.34 1.25 163.996-115-.123-230.003.338-345-.456 130.982-120.098 206.02-309.207 165.809-485.509-20.463-96.406-96.506-185.239-195.937-205.526-100.391-24.111-213.708 8.943-272.666 97.246-74.92 109.726-70.715 255.766-27.261 376.745 29.866 82.809 81.314 156.543 145.055 216.888-114.994 1.067-230 .447-345 .612z" fill-rule="nonzero" transform="translate(-.501)"/></svg>