<?xml version="1.0" encoding="UTF-8" standalone="no"?>
<!DOCTYPE svg PUBLIC "-//W3C//DTD SVG 1.1//EN" "http://www.w3.org/Graphics/SVG/1.1/DTD/svg11.dtd">
<svg width="100%" height="100%" viewBox="0 0 30 66" version="1.1" xmlns="http://www.w3.org/2000/svg" xmlns:xlink="http://www.w3.org/1999/xlink" xml:space="preserve" xmlns:serif="http://www.serif.com/" style="fill-rule:evenodd;clip-rule:evenodd;stroke-linejoin:round;stroke-miterlimit:2;">
    <g transform="matrix(1.05325,0,0,1.05325,-1446.6,-8526.13)">
        <path d="M1375.65,8145.95C1375.65,8153.97 1380.51,8157.73 1387,8157.73C1395.02,8157.73 1399.29,8154.06 1399.29,8145.95L1399.29,8107.81C1399.29,8098.42 1394.94,8095.61 1387.43,8095.61C1379.92,8095.61 1375.65,8098.42 1375.65,8107.81L1375.65,8145.95ZM1384.7,8106.7C1384.7,8104.31 1385.89,8102.86 1387.26,8102.86C1389.05,8102.86 1390.24,8104.31 1390.24,8106.7L1390.24,8145.95C1390.24,8147.66 1390.07,8150.47 1387.6,8150.47C1384.87,8150.47 1384.7,8147.91 1384.7,8145.61L1384.7,8106.7Z" style="fill-rule:nonzero;"/>
    </g>
</svg>
