<?xml version="1.0" encoding="UTF-8" standalone="no"?>
<!DOCTYPE svg PUBLIC "-//W3C//DTD SVG 1.1//EN" "http://www.w3.org/Graphics/SVG/1.1/DTD/svg11.dtd">
<svg width="100%" height="100%" viewBox="0 0 30 66" version="1.1" xmlns="http://www.w3.org/2000/svg" xmlns:xlink="http://www.w3.org/1999/xlink" xml:space="preserve" xmlns:serif="http://www.serif.com/" style="fill-rule:evenodd;clip-rule:evenodd;stroke-linejoin:round;stroke-miterlimit:2;">
    <g transform="matrix(1.05325,0,0,1.05325,-1207.17,-8526.13)">
        <path d="M1158.22,8149.79C1158.65,8136.39 1171.96,8126.49 1171.96,8109.6C1171.96,8102.43 1170.17,8095.61 1161.46,8095.61C1152.33,8095.61 1148.32,8099.1 1148.32,8108.49L1148.32,8118.05L1157.37,8118.05L1157.37,8107.38C1157.37,8104.65 1158.22,8102.86 1160.44,8102.86C1162.23,8102.86 1162.91,8104.14 1162.91,8107.38L1162.91,8113.01C1162.91,8123.51 1148.32,8135.45 1148.32,8153.2L1148.32,8157.05L1171.62,8157.05L1171.62,8149.79L1158.22,8149.79Z" style="fill-rule:nonzero;"/>
    </g>
</svg>
