<?xml version="1.0" encoding="UTF-8" standalone="no"?>
<!DOCTYPE svg PUBLIC "-//W3C//DTD SVG 1.1//EN" "http://www.w3.org/Graphics/SVG/1.1/DTD/svg11.dtd">
<svg width="100%" height="100%" viewBox="0 0 30 66" version="1.1" xmlns="http://www.w3.org/2000/svg" xmlns:xlink="http://www.w3.org/1999/xlink" xml:space="preserve" xmlns:serif="http://www.serif.com/" style="fill-rule:evenodd;clip-rule:evenodd;stroke-linejoin:round;stroke-miterlimit:2;">
    <g transform="matrix(1.05325,0,0,1.05325,-1237.09,-8526.13)">
        <path d="M1176.74,8134.69L1176.74,8143.31C1176.74,8152.01 1178.79,8157.73 1188.6,8157.73C1195.6,8157.73 1200.38,8155.17 1200.38,8145.44L1200.38,8135.2C1200.38,8131.36 1199.95,8128.71 1193.21,8126.49L1193.21,8126.15C1199.27,8124.79 1200.38,8121.03 1200.38,8117.28L1200.38,8107.47C1200.38,8100.73 1197.47,8095.61 1188.86,8095.61C1181.01,8095.61 1176.74,8098.68 1176.74,8107.98L1176.74,8117.88L1185.78,8117.88L1185.78,8108.66C1185.95,8106.27 1185.36,8102.86 1188.86,8102.86C1191.84,8102.86 1191.16,8106.87 1191.33,8111.22L1191.33,8116.68C1191.33,8120.35 1190.48,8123 1185.78,8122.65L1185.78,8129.91L1187.15,8129.91C1189.79,8129.91 1191.33,8131.19 1191.33,8134.77L1191.33,8145.78C1191.33,8150.05 1189.96,8150.47 1188.26,8150.47C1187.23,8150.47 1185.78,8149.96 1185.78,8143.99L1185.78,8134.69L1176.74,8134.69Z" style="fill-rule:nonzero;"/>
    </g>
</svg>
