<?xml version="1.0" encoding="UTF-8" standalone="no"?>
<!DOCTYPE svg PUBLIC "-//W3C//DTD SVG 1.1//EN" "http://www.w3.org/Graphics/SVG/1.1/DTD/svg11.dtd">
<svg width="100%" height="100%" viewBox="0 0 30 66" version="1.1" xmlns="http://www.w3.org/2000/svg" xmlns:xlink="http://www.w3.org/1999/xlink" xml:space="preserve" xmlns:serif="http://www.serif.com/" style="fill-rule:evenodd;clip-rule:evenodd;stroke-linejoin:round;stroke-miterlimit:2;">
    <g transform="matrix(1.05325,0,0,1.05325,-1296.95,-8526.13)">
        <path d="M1233.57,8134.69L1233.57,8147.4C1233.57,8155.34 1239.12,8157.73 1245.01,8157.73C1254.9,8157.73 1257.21,8152.18 1257.21,8145.27L1257.21,8130.51C1257.21,8124.45 1255.93,8118.9 1249.61,8118.9C1247.14,8118.9 1244.83,8120.1 1242.96,8121.55L1242.96,8103.54L1256.61,8103.54L1256.61,8096.29L1233.91,8096.29L1233.91,8128.63L1242.87,8128.63C1243.13,8127.26 1243.98,8126.75 1245.43,8126.75C1247.65,8126.75 1248.16,8128.63 1248.16,8130.85L1248.16,8146.04C1248.16,8148.34 1247.99,8150.47 1245.77,8150.47C1242.79,8150.47 1242.62,8148.34 1242.62,8146.04L1242.62,8134.69L1233.57,8134.69Z" style="fill-rule:nonzero;"/>
    </g>
</svg>
