<?xml version="1.0" encoding="UTF-8" standalone="no"?>
<!DOCTYPE svg PUBLIC "-//W3C//DTD SVG 1.1//EN" "http://www.w3.org/Graphics/SVG/1.1/DTD/svg11.dtd">
<svg width="100%" height="100%" viewBox="0 0 30 66" version="1.1" xmlns="http://www.w3.org/2000/svg" xmlns:xlink="http://www.w3.org/1999/xlink" xml:space="preserve" xmlns:serif="http://www.serif.com/" style="fill-rule:evenodd;clip-rule:evenodd;stroke-linejoin:round;stroke-miterlimit:2;">
    <g transform="matrix(1.05325,0,0,1.05325,-1326.88,-8526.13)">
        <path d="M1285.62,8129.65C1285.62,8121.38 1281.36,8120.01 1277.77,8120.01C1275.3,8120.01 1272.65,8121.2 1271.03,8122.91L1271.03,8106.7C1271.03,8104.57 1271.37,8102.86 1273.85,8102.86C1276.32,8102.86 1276.58,8104.57 1276.58,8106.7L1276.58,8118.13L1285.62,8118.13L1285.62,8108.15C1285.62,8100.21 1282.55,8095.61 1273.93,8095.61C1265.49,8095.61 1261.99,8100.3 1261.99,8107.81L1261.99,8146.46C1261.99,8153.8 1265.91,8157.73 1273.68,8157.73C1283.83,8157.73 1285.62,8152.1 1285.62,8145.78L1285.62,8129.65ZM1276.58,8146.55C1276.58,8148.34 1276.49,8150.47 1274.02,8150.47C1271.03,8150.47 1271.03,8147.83 1271.03,8145.35L1271.03,8131.79C1271.03,8129.99 1271.54,8128.2 1273.68,8128.2C1276.07,8128.2 1276.58,8129.65 1276.58,8131.79L1276.58,8146.55Z" style="fill-rule:nonzero;"/>
    </g>
</svg>
