<?xml version="1.0" encoding="UTF-8" standalone="no"?>
<!DOCTYPE svg PUBLIC "-//W3C//DTD SVG 1.1//EN" "http://www.w3.org/Graphics/SVG/1.1/DTD/svg11.dtd">
<svg width="100%" height="100%" viewBox="0 0 30 66" version="1.1" xmlns="http://www.w3.org/2000/svg" xmlns:xlink="http://www.w3.org/1999/xlink" xml:space="preserve" xmlns:serif="http://www.serif.com/" style="fill-rule:evenodd;clip-rule:evenodd;stroke-linejoin:round;stroke-miterlimit:2;">
    <g transform="matrix(1.05325,0,0,1.05325,-1386.74,-8526.13)">
        <path d="M1318.82,8146.63C1318.82,8153.8 1323.26,8157.73 1330.34,8157.73C1337.76,8157.73 1342.46,8153.8 1342.46,8147.91L1342.46,8132.64C1342.46,8130.42 1340.66,8127.18 1335.29,8125.73L1335.29,8125.56C1341.01,8125.13 1342.46,8119.93 1342.46,8115.74L1342.37,8107.21C1342.29,8098.42 1336.14,8095.61 1330.25,8095.61C1325.56,8095.61 1318.82,8097.91 1318.82,8107.21L1318.82,8116.68C1318.99,8121.29 1320.18,8125.22 1326.16,8125.56L1326.16,8125.73C1319.67,8127.35 1318.82,8130.93 1318.82,8135.28L1318.82,8146.63ZM1333.41,8146.12C1333.41,8147.91 1333.33,8150.47 1330.77,8150.47C1328.97,8150.47 1327.86,8149.02 1327.86,8146.12L1327.86,8133.07C1327.86,8131.53 1328.38,8129.74 1330.59,8129.74C1332.81,8129.74 1333.41,8131.53 1333.41,8133.07L1333.41,8146.12ZM1333.41,8117.79C1333.41,8120.44 1332.39,8121.46 1330.85,8121.46C1328.63,8121.46 1327.86,8120.78 1327.86,8117.53L1327.86,8106.78C1327.95,8104.57 1328.46,8102.86 1330.68,8102.86C1332.64,8102.86 1333.41,8103.63 1333.41,8106.78L1333.41,8117.79Z" style="fill-rule:nonzero;"/>
    </g>
</svg>
