<?xml version="1.0" encoding="UTF-8" standalone="no"?>
<!DOCTYPE svg PUBLIC "-//W3C//DTD SVG 1.1//EN" "http://www.w3.org/Graphics/SVG/1.1/DTD/svg11.dtd">
<svg width="100%" height="100%" viewBox="0 0 30 66" version="1.1" xmlns="http://www.w3.org/2000/svg" xmlns:xlink="http://www.w3.org/1999/xlink" xml:space="preserve" xmlns:serif="http://www.serif.com/" style="fill-rule:evenodd;clip-rule:evenodd;stroke-linejoin:round;stroke-miterlimit:2;">
    <g transform="matrix(1.05325,0,0,1.05325,-1416.67,-8526.13)">
        <path d="M1347.23,8126.92C1347.23,8135.2 1351.5,8136.57 1355.09,8136.57C1357.56,8136.57 1360.2,8135.37 1361.83,8133.66L1361.83,8146.12C1361.83,8148.26 1361.49,8149.96 1359.01,8149.96C1356.54,8149.96 1356.28,8148.26 1356.28,8146.12L1356.28,8138.61L1347.23,8138.61L1347.23,8144.67C1347.23,8152.61 1350.31,8157.22 1358.92,8157.22C1367.37,8157.22 1370.87,8152.52 1370.87,8145.01L1370.87,8106.36C1370.87,8099.02 1366.95,8095.09 1359.18,8095.09C1349.03,8095.09 1347.23,8100.73 1347.23,8107.04L1347.23,8126.92ZM1356.28,8106.27C1356.28,8104.48 1356.37,8102.35 1358.84,8102.35C1361.83,8102.35 1361.83,8104.99 1361.83,8107.47L1361.83,8124.79C1361.83,8126.58 1361.31,8128.37 1359.18,8128.37C1356.79,8128.37 1356.28,8126.92 1356.28,8124.79L1356.28,8106.27Z" style="fill-rule:nonzero;"/>
    </g>
</svg>
